<svg width="37" height="37" viewBox="0 0 37 37" fill="none" xmlns="http://www.w3.org/2000/svg">
<path d="M24.8442 4.47437H29.6913C30.7958 4.47437 31.6913 5.3698 31.6913 6.47437V6.84474V31.7336V32.104C31.6913 33.2086 30.7958 34.104 29.6913 34.104H7.61719C6.51262 34.104 5.61719 33.2086 5.61719 32.104V31.7336V6.84474V6.47437C5.61719 5.3698 6.51262 4.47437 7.61719 4.47437H12.4642C13.0339 4.47437 13.5666 4.21965 13.9965 3.84584C14.5226 3.38839 15.1144 3.00984 15.7537 2.72364C16.6661 2.31516 17.6545 2.104 18.6542 2.104C19.6539 2.104 20.6423 2.31516 21.5547 2.72364C22.194 3.00984 22.7859 3.38839 23.312 3.84584C23.7419 4.21965 24.2746 4.47437 24.8442 4.47437Z" fill="url(#paint0_linear)"/>
<path d="M24.168 9.98895C24.168 9.98895 21.6995 9.95406 18.6543 9.95406C15.6092 9.95406 13.1406 9.98895 13.1406 9.98895C13.1406 6.94381 15.6092 4.47524 18.6543 4.47524C21.6995 4.47524 24.168 6.94381 24.168 9.98895Z" fill="#F7F7F7"/>
<rect x="9.21484" y="16.5632" width="18.8813" height="2.06912" rx="1.03456" fill="#F7F7F7"/>
<rect x="9.21484" y="23.1587" width="18.8813" height="2.06912" rx="1.03456" fill="#F7F7F7"/>
<defs>
<linearGradient id="paint0_linear" x1="16.2742" y1="-1.48812" x2="16.2742" y2="40.6321" gradientUnits="userSpaceOnUse">
<stop stop-color="#9B59B6"/>
<stop offset="1" stop-color="#8E44AD"/>
</linearGradient>
</defs>
</svg>
