<svg width="37" height="36" viewBox="0 0 37 36" fill="none" xmlns="http://www.w3.org/2000/svg">
<path d="M32.3505 4.61951L32.2776 3.79651H27.9323V3.25C27.9323 2.69771 27.4846 2.25 26.9323 2.25H10.3758C9.82352 2.25 9.3758 2.69772 9.3758 3.25V3.79651H5.03047L4.9576 4.61951C4.94849 4.71899 4.73896 7.14277 5.44952 9.89212C6.33316 13.3107 8.25531 15.7255 11.0156 16.9373C12.3911 18.9089 14.5137 20.3198 16.9824 20.7629C17.0371 22.1195 16.9551 25.6557 14.7596 27.2836C13.7148 28.059 12.8988 28.5783 12.289 28.9241C11.48 29.3828 10.8516 30.2479 10.8516 31.1779V31.75C10.8516 32.8546 11.747 33.75 12.8516 33.75H24.4383C25.5429 33.75 26.4383 32.8546 26.4383 31.75V31.1659C26.4383 30.2415 25.8172 29.3825 25.0128 28.9269C24.4017 28.5808 23.5819 28.0606 22.5302 27.2836C20.3348 25.6557 20.2528 22.1195 20.3075 20.7629C22.7762 20.3198 24.8988 18.9089 26.2743 16.9373C29.0437 15.7345 30.9567 13.3198 31.8403 9.89212C32.5691 7.14277 32.3596 4.71899 32.3505 4.61951ZM7.22591 9.48514C6.81598 7.93863 6.7431 6.47351 6.7431 5.59625H9.3758V11.6919C9.3758 12.4425 9.4669 13.1751 9.63999 13.8714C8.51949 12.8043 7.71784 11.3391 7.22591 9.48514ZM30.0822 9.48514C29.5994 11.3391 28.7886 12.8043 27.6772 13.8714C27.8503 13.1751 27.9414 12.4425 27.9414 11.6919V5.6053H30.5741C30.565 6.47351 30.483 7.93863 30.0822 9.48514Z" fill="url(#paint0_linear)"/>
<path d="M17.8268 7.24438C18.2234 6.65919 19.0856 6.65919 19.4822 7.24438L20.1296 8.19942C20.2609 8.39309 20.456 8.5346 20.6808 8.59931L21.787 8.91764C22.4671 9.11338 22.7343 9.93434 22.2996 10.4929L21.5909 11.4033C21.4472 11.588 21.3727 11.8173 21.3806 12.0513L21.4197 13.2063C21.4436 13.9135 20.7457 14.4211 20.0803 14.1806L18.9945 13.788C18.7748 13.7086 18.5342 13.7086 18.3145 13.788L17.2258 14.1816C16.5612 14.4219 15.8638 13.9157 15.8863 13.2094L15.9232 12.0493C15.9306 11.8165 15.8565 11.5885 15.7138 11.4045L15.0061 10.4923C14.5726 9.93364 14.8401 9.11388 15.5196 8.91833L16.6282 8.59931C16.853 8.5346 17.0481 8.39309 17.1793 8.19942L17.8268 7.24438Z" fill="white"/>
<defs>
<linearGradient id="paint0_linear" x1="18.6536" y1="2.25" x2="18.6536" y2="33.75" gradientUnits="userSpaceOnUse">
<stop stop-color="#FFCD02"/>
<stop offset="1" stop-color="#FFA800"/>
</linearGradient>
</defs>
</svg>
