<svg width="37" height="37" viewBox="0 0 37 37" fill="none" xmlns="http://www.w3.org/2000/svg">
<path fill-rule="evenodd" clip-rule="evenodd" d="M20.2332 13.9586C21.1409 13.4055 21.7491 12.3905 21.7491 11.23C21.7491 9.47779 20.3627 8.05737 18.6523 8.05737C16.942 8.05737 15.5556 9.47779 15.5556 11.23C15.5556 12.4767 16.2576 13.5556 17.2787 14.0742C16.2859 16.396 14.6301 17.9519 12.4899 17.9519C10.6952 17.9519 8.99143 16.8818 7.89535 15.1033C8.48129 14.5261 8.84589 13.7148 8.84589 12.8162C8.84589 11.0641 7.45943 9.64366 5.74912 9.64366C4.03881 9.64366 2.65234 11.0641 2.65234 12.8162C2.65234 14.5053 3.94078 15.8861 5.56571 15.9834L9.10339 27.2116C9.27268 27.7663 9.71295 28.1504 10.1871 28.1504H27.6275C28.1016 28.1504 28.5418 27.7663 28.7111 27.2116L32.2741 15.903C33.6379 15.571 34.6523 14.315 34.6523 12.8162C34.6523 11.0641 33.2659 9.64366 31.5556 9.64366C29.8453 9.64366 28.4588 11.0641 28.4588 12.8162C28.4588 13.8757 28.9657 14.8138 29.7445 15.39C28.6511 17.028 27.0278 17.9945 25.2908 17.9945C23.0809 17.9945 21.192 16.4274 20.2332 13.9586Z" fill="url(#paint0_linear)"/>
<defs>
<linearGradient id="paint0_linear" x1="18.6523" y1="8.05737" x2="18.6523" y2="28.1504" gradientUnits="userSpaceOnUse">
<stop stop-color="#FFCD02"/>
<stop offset="1" stop-color="#FFA800"/>
</linearGradient>
</defs>
</svg>
