<svg width="32" height="32" viewBox="0 0 32 32" fill="none" xmlns="http://www.w3.org/2000/svg">
<circle cx="16" cy="16" r="16" fill="#F4F4F4"/>
<path d="M19.9129 10.2695C19.9129 12.2442 18.3121 15.448 16.3373 15.448C14.3626 15.448 12.7617 12.2442 12.7617 10.2695C12.7617 8.2947 14.3626 6.69385 16.3373 6.69385C18.3121 6.69385 19.9129 8.2947 19.9129 10.2695Z" fill="#2268AE"/>
<path d="M8.92969 23.473C8.92969 19.5622 12.1 16.3918 16.0108 16.3918H16.7264C20.6372 16.3918 23.8075 19.5622 23.8075 23.473V23.473C23.8075 24.1473 23.2609 24.6939 22.5866 24.6939H10.1506C9.4763 24.6939 8.92969 24.1473 8.92969 23.473V23.473Z" fill="#2268AE"/>
</svg>
