<svg width="37" height="36" viewBox="0 0 37 36" fill="none" xmlns="http://www.w3.org/2000/svg">
<path d="M31.5524 13.6389C31.2965 12.6476 30.7847 11.7202 29.8731 10.9528C26.1945 8.17073 22.8839 10.9208 22.8839 10.9208L19.3333 14.4703L9.06534 4.18955C8.90541 4.02966 8.63352 4.07762 8.53755 4.30147C4.891 13.367 12.2001 21.4893 12.2001 21.4893L5.60773 28.1699C4.99911 28.7867 5.40754 29.8128 6.27396 29.8248C8.13823 29.8506 11.1966 29.8595 15.5748 29.7714C27.7619 28.3644 30.8007 20.3221 31.3285 18.3076C31.3925 18.0837 31.4405 17.8599 31.5044 17.62L35.8387 15.6854C36.1106 15.5735 36.0786 15.1898 35.8067 15.0938L31.5524 13.6389ZM27.442 15.3337C26.8343 15.3337 26.3545 14.838 26.3545 14.2464C26.3545 13.6548 26.8343 13.1592 27.442 13.1592C28.0498 13.1592 28.5296 13.6389 28.5296 14.2464C28.5296 14.854 28.0338 15.3337 27.442 15.3337Z" fill="url(#paint0_linear)"/>
<defs>
<linearGradient id="paint0_linear" x1="20.0273" y1="4.0954" x2="20.0273" y2="29.8425" gradientUnits="userSpaceOnUse">
<stop stop-color="#FFCD02"/>
<stop offset="1" stop-color="#FFA800"/>
</linearGradient>
</defs>
</svg>
