<svg width="37" height="37" viewBox="0 0 37 37" fill="none" xmlns="http://www.w3.org/2000/svg">
<path d="M14.5207 18.7126C13.338 18.7126 12.3789 17.7547 12.3789 16.5735V12.8931C12.3789 11.7119 13.338 10.754 14.5207 10.754C15.7034 10.754 16.6626 11.7119 16.6626 12.8931V16.5735C16.6698 17.7475 15.7034 18.7126 14.5207 18.7126Z" fill="url(#paint0_linear)"/>
<path d="M21.9063 11.8578V15.4805C19.3606 15.5742 18.1563 15.7398 17.6659 16.0639C17.5722 15.8263 17.6154 15.8046 17.6154 15.5382V11.8578C17.6154 10.6766 18.5746 9.71866 19.7645 9.71866C20.3558 9.71866 20.8895 9.95634 21.2789 10.3453C21.6683 10.7342 21.9063 11.2672 21.9063 11.8578Z" fill="url(#paint1_linear)"/>
<path d="M27.1425 4.2503V15.8533C27.1425 15.9181 27.1425 15.7885 27.1352 15.8533C26.3564 15.5436 25.2891 15.6228 22.8516 15.5796V4.2503C22.8516 3.06912 23.8107 2.104 24.9934 2.104C25.5848 2.104 26.1256 2.34168 26.5078 2.73061C26.9045 3.11953 27.1425 3.65251 27.1425 4.2503Z" fill="url(#paint2_linear)"/>
<path d="M30.5095 22.4435L30.4806 22.7172L30.3797 23.603C30.0407 26.592 28.6056 29.2209 26.4998 31.0935C24.394 32.9733 21.6248 34.1041 18.6104 34.1041C12.0622 34.1041 6.76172 28.8031 6.76172 22.2706V5.58997C6.76172 4.26474 7.83624 3.19159 9.16318 3.19159H9.23529C10.5334 3.19159 11.5863 4.25754 11.5646 5.55396C11.5069 8.57895 11.4276 13.2389 11.4276 15.45C11.4276 18.6838 12.4949 19.6057 13.7714 19.793C14.3483 19.8794 14.9973 19.793 15.4084 19.6201C16.1873 19.296 16.2377 18.7126 16.2377 18.7126L16.3315 19.3825C16.5551 20.967 18.2714 22.1338 19.8652 22.249L24.3868 22.5947C24.4013 22.5947 24.4157 22.5947 24.4301 22.5947C24.6897 22.5947 24.9205 22.4291 24.9998 22.177C25.1152 21.8097 24.8484 21.4279 24.4662 21.4135L19.5911 21.147C18.9709 21.147 18.4084 20.895 18.0046 20.4916C17.6007 20.0883 17.3483 19.5265 17.3483 18.9071C17.3483 18.2445 17.6368 17.6539 18.0911 17.2434C18.4878 16.8905 19.007 16.6672 19.5767 16.6672L21.733 16.6528L22.9301 16.6456L25.2522 16.624C25.8652 16.6168 26.4493 16.7176 26.9902 16.9049C29.2474 17.6539 30.7979 19.9226 30.5095 22.4435Z" fill="url(#paint3_linear)"/>
<defs>
<linearGradient id="paint0_linear" x1="14.5208" y1="10.754" x2="14.5208" y2="18.7126" gradientUnits="userSpaceOnUse">
<stop stop-color="#E74C3C"/>
<stop offset="1" stop-color="#C0392B"/>
</linearGradient>
<linearGradient id="paint1_linear" x1="19.7559" y1="9.71866" x2="19.7559" y2="16.0639" gradientUnits="userSpaceOnUse">
<stop stop-color="#E74C3C"/>
<stop offset="1" stop-color="#C0392B"/>
</linearGradient>
<linearGradient id="paint2_linear" x1="24.997" y1="2.104" x2="24.997" y2="15.872" gradientUnits="userSpaceOnUse">
<stop stop-color="#E74C3C"/>
<stop offset="1" stop-color="#C0392B"/>
</linearGradient>
<linearGradient id="paint3_linear" x1="18.6528" y1="3.19159" x2="18.6528" y2="34.1041" gradientUnits="userSpaceOnUse">
<stop stop-color="#E74C3C"/>
<stop offset="1" stop-color="#C0392B"/>
</linearGradient>
</defs>
</svg>
