<svg width="32" height="32" viewBox="0 0 32 32" fill="none" xmlns="http://www.w3.org/2000/svg">
<path d="M25.6364 13.8182C25.6364 21.4545 15.8182 28 15.8182 28C15.8182 28 6 21.4545 6 13.8182C6 11.2142 7.03441 8.71695 8.87568 6.87568C10.7169 5.03441 13.2142 4 15.8182 4C18.4221 4 20.9194 5.03441 22.7607 6.87568C24.6019 8.71695 25.6364 11.2142 25.6364 13.8182Z" fill="#FB6767" stroke="#FB6767" stroke-width="1.2" stroke-linecap="round" stroke-linejoin="round"/>
<path d="M15.8216 17.0909C17.629 17.0909 19.0943 15.6256 19.0943 13.8181C19.0943 12.0107 17.629 10.5454 15.8216 10.5454C14.0141 10.5454 12.5488 12.0107 12.5488 13.8181C12.5488 15.6256 14.0141 17.0909 15.8216 17.0909Z" fill="white" stroke="white" stroke-width="1.2" stroke-linecap="round" stroke-linejoin="round"/>
</svg>
