<svg width="37" height="36" viewBox="0 0 37 36" fill="none" xmlns="http://www.w3.org/2000/svg">
<path d="M8.66749 6.95858V6.12637C8.66749 5.17608 9.43548 4.41135 10.3773 4.41135C11.319 4.41135 12.087 5.17608 12.087 6.12637V6.63244C12.087 6.63244 15.8261 9.87693 21.97 6.60433C24.9018 5.23793 29.308 4.42259 32.2286 6.53685C32.2847 6.57621 32.3183 6.64931 32.3183 6.71679V23.0461C32.3183 23.226 32.1221 23.3328 31.9707 23.2316C31.0178 22.5962 28.0971 21.1511 23.2594 23.0967C17.2499 25.509 15.3608 25.6158 11.9693 23.4959V33.1844C11.9693 33.37 11.8179 33.5218 11.6329 33.5218H8.86369C8.6787 33.5218 8.52734 33.37 8.52734 33.1844L8.66749 6.95858Z" fill="url(#paint0_linear)"/>
<defs>
<linearGradient id="paint0_linear" x1="20.4228" y1="4.41135" x2="20.4228" y2="33.5218" gradientUnits="userSpaceOnUse">
<stop stop-color="#E74C3C"/>
<stop offset="1" stop-color="#C0392B"/>
</linearGradient>
</defs>
</svg>
