<svg width="24" height="24" viewBox="0 0 24 24" fill="none" xmlns="http://www.w3.org/2000/svg">
<g clip-path="url(#clip0)">
<path fill-rule="evenodd" clip-rule="evenodd" d="M19.9999 21.9998H19.9989H1.99989C0.8972 21.9998 9e-05 21.1027 9e-05 20L0.00999 11H0L9e-05 5.9996H1.99989V20H19.9999V21.9988V21.9998ZM21.9997 18.0002H6.00039C4.8972 18.0002 3.99969 17.1031 3.99969 16.0004L4.01049 3.9998C4.01049 2.89711 4.90316 2 6.00039 2H11.9998L14.0005 3.9998H21.9997C23.1029 3.9998 24.0004 4.89691 24.0004 5.9996V16.0004C24.0004 17.1031 23.1029 18.0002 21.9997 18.0002ZM11.5003 9.0002L7.00029 14.9996H20.9998L17.4997 10.4996L15.0004 13.5101L11.5003 9.0002Z" fill="#19B7C1"/>
<mask id="mask0" mask-type="alpha" maskUnits="userSpaceOnUse" x="0" y="2" width="25" height="20">
<path fill-rule="evenodd" clip-rule="evenodd" d="M19.9999 21.9998H19.9989H1.99989C0.8972 21.9998 9e-05 21.1027 9e-05 20L0.00999 11H0L9e-05 5.9996H1.99989V20H19.9999V21.9988V21.9998ZM21.9997 18.0002H6.00039C4.8972 18.0002 3.99969 17.1031 3.99969 16.0004L4.01049 3.9998C4.01049 2.89711 4.90316 2 6.00039 2H11.9998L14.0005 3.9998H21.9997C23.1029 3.9998 24.0004 4.89691 24.0004 5.9996V16.0004C24.0004 17.1031 23.1029 18.0002 21.9997 18.0002ZM11.5003 9.0002L7.00029 14.9996H20.9998L17.4997 10.4996L15.0004 13.5101L11.5003 9.0002Z" fill="white"/>
</mask>
<g mask="url(#mask0)">
<rect x="-13" y="-13" width="50" height="50" fill="#9C9CA5"/>
</g>
</g>
<defs>
<clipPath id="clip0">
<rect width="24" height="24" fill="white"/>
</clipPath>
</defs>
</svg>
