<svg width="37" height="36" viewBox="0 0 37 36" fill="none" xmlns="http://www.w3.org/2000/svg">
<path d="M13.5828 18.3349C13.5828 19.4853 12.6625 20.4056 11.5121 20.4056C10.3617 20.4056 9.44141 19.4661 9.44141 18.3349C9.44141 17.2037 10.3617 16.2642 11.5121 16.2642C12.6625 16.2642 13.5828 17.2037 13.5828 18.3349Z" fill="black"/>
<path d="M25.8519 16.2642C24.7015 16.2642 23.7812 17.2037 23.7812 18.3349C23.7812 19.4661 24.7015 20.4248 25.8519 20.4248C27.0023 20.4248 27.9226 19.4853 27.9226 18.3541C27.9226 17.2229 27.0023 16.2642 25.8519 16.2642ZM25.8519 16.2642C24.7015 16.2642 23.7812 17.2037 23.7812 18.3349C23.7812 19.4661 24.7015 20.4248 25.8519 20.4248C27.0023 20.4248 27.9226 19.4853 27.9226 18.3541C27.9226 17.2229 27.0023 16.2642 25.8519 16.2642ZM31.0861 10.4164L31.7194 6.90481C31.8765 6.03372 30.8857 5.3719 30.0962 5.77217C27.4366 7.12062 24.4825 7.82804 21.4804 7.82804H15.8243C13.9262 7.82804 12.0472 7.54044 10.2449 7.00359C9.20341 6.67882 8.18152 6.26247 7.19837 5.76219C6.41128 5.36167 5.42613 6.02208 5.58285 6.89118L6.21855 10.4164C6.21855 10.4164 2.65234 14.4044 2.65234 19.447C2.65234 24.4895 8.57685 26.541 8.57685 26.541C8.57685 26.541 11.1077 31.5261 18.6619 31.4302C26.2162 31.5261 28.7278 26.541 28.7278 26.541C28.7278 26.541 34.6523 24.4895 34.6523 19.447C34.6523 14.4044 31.0861 10.4164 31.0861 10.4164ZM5.50914 18.3349C5.50914 15.018 8.19339 12.3337 11.5103 12.3337C14.8273 12.3337 17.5115 15.018 17.5115 18.3349C17.5115 21.6519 14.8273 24.3361 11.5103 24.3361C8.19339 24.3553 5.50914 21.6519 5.50914 18.3349ZM18.5661 29.0144L15.7476 25.8508C17.454 25.1222 18.5661 23.3391 18.5661 23.3391C18.5661 23.3391 19.6781 25.1414 21.3845 25.8508L18.5661 29.0144ZM25.8519 24.3553C22.5349 24.3553 19.8507 21.6711 19.8507 18.3541C19.8507 15.0371 22.5349 12.3529 25.8519 12.3529C29.1688 12.3529 31.8531 15.0371 31.8531 18.3541C31.8531 21.6711 29.1688 24.3553 25.8519 24.3553ZM25.8519 16.2642C24.7015 16.2642 23.7812 17.2037 23.7812 18.3349C23.7812 19.4661 24.7015 20.4248 25.8519 20.4248C27.0023 20.4248 27.9226 19.4853 27.9226 18.3541C27.9226 17.2229 27.0023 16.2642 25.8519 16.2642Z" fill="url(#paint0_linear)"/>
<path d="M13.5828 18.3349C13.5828 19.4853 12.6625 20.4056 11.5121 20.4056C10.3617 20.4056 9.44141 19.4661 9.44141 18.3349C9.44141 17.2037 10.3617 16.2642 11.5121 16.2642C12.6625 16.2642 13.5828 17.2037 13.5828 18.3349Z" fill="white"/>
<path d="M25.852 20.4056C26.9956 20.4056 27.9227 19.4785 27.9227 18.3349C27.9227 17.1913 26.9956 16.2642 25.852 16.2642C24.7083 16.2642 23.7812 17.1913 23.7812 18.3349C23.7812 19.4785 24.7083 20.4056 25.852 20.4056Z" fill="white"/>
<path d="M13.5828 18.3349C13.5828 19.4853 12.6625 20.4056 11.5121 20.4056C10.3617 20.4056 9.44141 19.4661 9.44141 18.3349C9.44141 17.2037 10.3617 16.2642 11.5121 16.2642C12.6625 16.2642 13.5828 17.2037 13.5828 18.3349Z" fill="url(#paint1_linear)"/>
<path d="M25.852 20.4056C26.9956 20.4056 27.9227 19.4785 27.9227 18.3349C27.9227 17.1913 26.9956 16.2642 25.852 16.2642C24.7083 16.2642 23.7812 17.1913 23.7812 18.3349C23.7812 19.4785 24.7083 20.4056 25.852 20.4056Z" fill="url(#paint2_linear)"/>
<defs>
<linearGradient id="paint0_linear" x1="18.6523" y1="4.5686" x2="18.6523" y2="31.4316" gradientUnits="userSpaceOnUse">
<stop stop-color="#34495E"/>
<stop offset="1" stop-color="#2C3E50"/>
</linearGradient>
<linearGradient id="paint1_linear" x1="11.5121" y1="16.2642" x2="11.5121" y2="20.4056" gradientUnits="userSpaceOnUse">
<stop stop-color="#34495E"/>
<stop offset="1" stop-color="#2C3E50"/>
</linearGradient>
<linearGradient id="paint2_linear" x1="25.852" y1="16.2642" x2="25.852" y2="20.4056" gradientUnits="userSpaceOnUse">
<stop stop-color="#34495E"/>
<stop offset="1" stop-color="#2C3E50"/>
</linearGradient>
</defs>
</svg>
