<svg width="20" height="20" viewBox="0 0 20 20" fill="none" xmlns="http://www.w3.org/2000/svg">
<path d="M13.75 9.375C13.75 10.3696 13.3549 11.3234 12.6517 12.0267C11.9484 12.7299 10.9946 13.125 10 13.125" stroke="black" stroke-width="1.2" stroke-linecap="round" stroke-linejoin="round"/>
<path d="M4.99997 15.5902C6.41269 16.8573 8.25452 17.5395 10.1518 17.4985C14.1736 17.419 17.4433 14.129 17.4993 10.1068C17.5134 9.113 17.3299 8.1263 16.9594 7.20404C16.5888 6.28179 16.0387 5.44238 15.3409 4.7346C14.6432 4.02682 13.8117 3.46478 12.8948 3.08117C11.9779 2.69755 10.9939 2.5 10 2.5H9.375V5L1.25 10L2.32712 11.4934C2.53252 11.7778 2.81352 11.999 3.13823 12.1317C3.46294 12.2645 3.81837 12.3036 4.16419 12.2446C5.52884 12.0136 7.91894 11.8764 10 13.125L10 13.125L7.24733 16.9787" stroke="black" stroke-width="1.2" stroke-linecap="round" stroke-linejoin="round"/>
<path d="M9.6875 8.75C10.2053 8.75 10.625 8.33027 10.625 7.8125C10.625 7.29473 10.2053 6.875 9.6875 6.875C9.16973 6.875 8.75 7.29473 8.75 7.8125C8.75 8.33027 9.16973 8.75 9.6875 8.75Z" fill="black"/>
</svg>
