<svg width="20" height="20" viewBox="0 0 20 20" fill="none" xmlns="http://www.w3.org/2000/svg">
<path d="M4.08693 7.15615C4.22756 6.85928 4.39162 6.57803 4.57912 6.30459L4.54787 4.27334C4.54787 4.08584 4.62599 3.90616 4.77443 3.78116C5.50099 3.17178 6.32912 2.67959 7.24318 2.35147C7.42287 2.28897 7.61818 2.30459 7.77443 2.40615L9.51662 3.45303C9.84474 3.42959 10.1729 3.42959 10.501 3.45303L12.2432 2.40615C12.4072 2.3124 12.6026 2.28897 12.7822 2.35147C13.6729 2.67178 14.5088 3.14834 15.251 3.77334C15.3916 3.89053 15.4776 4.07803 15.4697 4.26553L15.4385 6.29678C15.626 6.57022 15.7901 6.85147 15.9307 7.14834L17.7041 8.13272C17.8682 8.22647 17.9854 8.38272 18.0166 8.57022C18.1807 9.4999 18.1885 10.4687 18.0166 11.414C17.9854 11.6015 17.8682 11.7577 17.7041 11.8515L15.9307 12.8358C15.7901 13.1327 15.626 13.414 15.4385 13.6874L15.4697 15.7187C15.4697 15.9062 15.3916 16.0858 15.2432 16.2108C14.5166 16.8202 13.6885 17.3124 12.7744 17.6405C12.5947 17.703 12.3994 17.6874 12.2432 17.5858L10.501 16.539C10.1729 16.5624 9.84474 16.5624 9.51662 16.539L7.77443 17.5858C7.61037 17.6796 7.41506 17.703 7.23537 17.6405C6.34474 17.3202 5.50881 16.8437 4.76662 16.2187C4.62599 16.1015 4.54006 15.914 4.54787 15.7265L4.57912 13.6952C4.39162 13.4218 4.22756 13.1405 4.08693 12.8437L2.31349 11.8593C2.14943 11.7655 2.03224 11.6093 2.00099 11.4218C1.83693 10.4921 1.82912 9.52334 2.00099 8.57803C2.03224 8.39053 2.14943 8.23428 2.31349 8.14053L4.08693 7.15615Z" stroke="black" stroke-width="1.2" stroke-miterlimit="10" stroke-linecap="round" stroke-linejoin="round"/>
<path d="M10 13.75C12.0711 13.75 13.75 12.0711 13.75 10C13.75 7.92893 12.0711 6.25 10 6.25C7.92893 6.25 6.25 7.92893 6.25 10C6.25 12.0711 7.92893 13.75 10 13.75Z" stroke="black" stroke-width="1.2" stroke-miterlimit="10" stroke-linecap="round" stroke-linejoin="round"/>
</svg>
