<svg width="20" height="20" viewBox="0 0 20 20" fill="none" xmlns="http://www.w3.org/2000/svg">
<path d="M4.39046 8.75001C4.3884 8.01205 4.53197 7.28094 4.81295 6.59856C5.09393 5.91618 5.50679 5.29594 6.02788 4.7734C6.54897 4.25085 7.16805 3.83626 7.84964 3.55337C8.53123 3.27049 9.26195 3.12488 9.99991 3.12488C10.7379 3.12488 11.4686 3.27049 12.1502 3.55337C12.8318 3.83626 13.4508 4.25085 13.9719 4.7734C14.493 5.29594 14.9059 5.91618 15.1869 6.59856C15.4678 7.28094 15.6114 8.01205 15.6094 8.75001V8.75001C15.6094 11.5481 16.1948 13.1718 16.7104 14.0592C16.7659 14.1541 16.7955 14.2619 16.7961 14.3718C16.7966 14.4816 16.7682 14.5897 16.7137 14.6852C16.6592 14.7806 16.5805 14.8599 16.4855 14.9152C16.3905 14.9705 16.2826 14.9997 16.1727 15H3.82645C3.71654 14.9997 3.60865 14.9705 3.51367 14.9152C3.41868 14.8599 3.33996 14.7805 3.28544 14.6851C3.23092 14.5897 3.20253 14.4815 3.20313 14.3716C3.20374 14.2617 3.23332 14.1539 3.28889 14.0591C3.80478 13.1716 4.39046 11.548 4.39046 8.75001H4.39046Z" stroke="black" stroke-width="1.2" stroke-linecap="round" stroke-linejoin="round"/>
<path d="M7.5 15V15.625C7.5 16.288 7.76339 16.9239 8.23223 17.3928C8.70107 17.8616 9.33696 18.125 10 18.125C10.663 18.125 11.2989 17.8616 11.7678 17.3928C12.2366 16.9239 12.5 16.288 12.5 15.625V15" stroke="black" stroke-width="1.2" stroke-linecap="round" stroke-linejoin="round"/>
<path d="M14.332 1.87408C15.6038 2.67694 16.629 3.8156 17.2944 5.16437" stroke="black" stroke-width="1.2" stroke-linecap="round" stroke-linejoin="round"/>
<path d="M2.70703 5.16437C3.37246 3.8156 4.39765 2.67694 5.66941 1.87408" stroke="black" stroke-width="1.2" stroke-linecap="round" stroke-linejoin="round"/>
</svg>
