<svg width="36" height="36" viewBox="0 0 36 36" fill="none" xmlns="http://www.w3.org/2000/svg">
<path d="M17.8865 10.1781C17.8865 13.0417 15.572 17.4447 12.7084 17.4447C9.84484 17.4447 7.51953 13.0417 7.51953 10.1781C7.51953 7.31454 9.84484 5 12.6976 5C15.5505 5 17.8865 7.31454 17.8865 10.1781Z" fill="url(#paint0_linear)"/>
<path fill-rule="evenodd" clip-rule="evenodd" d="M12.9218 19.2513V19.2513H9.58954C5.40184 19.2513 2 22.6531 2 26.8408V28.4556C2 29.9197 3.18418 31.0931 4.6375 31.1039L12.4862 31.1039V31.104L20.7705 31.104C22.2238 31.0932 23.408 29.9198 23.408 28.4557V26.8409C23.408 22.6532 20.0062 19.2513 15.8185 19.2513H12.9218Z" fill="url(#paint1_linear)"/>
<path fill-rule="evenodd" clip-rule="evenodd" d="M21.6641 5C20.5595 5 19.6641 5.89543 19.6641 7V13.5548C19.6641 13.6834 19.6762 13.8091 19.6994 13.931H19.6641V18.0854L22.3914 15.5548H31.9988C33.1034 15.5548 33.9988 14.6594 33.9988 13.5548V7C33.9988 5.89543 33.1034 5 31.9988 5H21.6641Z" fill="url(#paint2_linear)"/>
<circle cx="23.2367" cy="10.375" r="0.967163" fill="url(#paint3_linear)"/>
<circle cx="26.9203" cy="10.3749" r="0.967163" fill="url(#paint4_linear)"/>
<circle cx="30.6039" cy="10.3749" r="0.967163" fill="url(#paint5_linear)"/>
<defs>
<linearGradient id="paint0_linear" x1="14.9223" y1="4.44825" x2="14.9223" y2="16.893" gradientUnits="userSpaceOnUse">
<stop stop-color="#3498DB"/>
<stop offset="1" stop-color="#2980B9"/>
</linearGradient>
<linearGradient id="paint1_linear" x1="17.2868" y1="18.7258" x2="17.2868" y2="30.5784" gradientUnits="userSpaceOnUse">
<stop stop-color="#3498DB"/>
<stop offset="1" stop-color="#2980B9"/>
</linearGradient>
<linearGradient id="paint2_linear" x1="29.9" y1="4.41985" x2="29.9" y2="17.5052" gradientUnits="userSpaceOnUse">
<stop stop-color="#3498DB"/>
<stop offset="1" stop-color="#2980B9"/>
</linearGradient>
<linearGradient id="paint3_linear" x1="23.6508" y1="9.32211" x2="23.6508" y2="11.2564" gradientUnits="userSpaceOnUse">
<stop stop-color="#3498DB"/>
<stop offset="0.0001" stop-color="white"/>
</linearGradient>
<linearGradient id="paint4_linear" x1="27.3344" y1="9.32199" x2="27.3344" y2="11.2563" gradientUnits="userSpaceOnUse">
<stop stop-color="#3498DB"/>
<stop offset="0.0001" stop-color="white"/>
</linearGradient>
<linearGradient id="paint5_linear" x1="31.018" y1="9.32199" x2="31.018" y2="11.2563" gradientUnits="userSpaceOnUse">
<stop stop-color="#3498DB"/>
<stop offset="0.0001" stop-color="white"/>
</linearGradient>
</defs>
</svg>
