<svg width="37" height="37" viewBox="0 0 37 37" fill="none" xmlns="http://www.w3.org/2000/svg">
<path d="M4.24949 16.9557L4.61644 21.0884C4.61644 21.0884 4.62294 21.161 4.98396 25.3712C5.49886 29.8199 7.84789 31.7511 10.9906 32.9676C17.0834 34.5007 29.9347 34.9129 32.7925 26.8443C32.7925 21.8397 32.8414 19.7764 32.8414 19.7764C28.0356 23.7063 25.9227 18.3154 25.9227 18.3154C22.1764 20.4145 20.3059 18.1713 20.3059 18.1713C20.229 19.7516 18.2939 20.993 16.7314 20.8737C14.8079 20.7246 12.4347 20.5338 11.3634 20.4085C9.41035 20.1819 9.14994 18.5599 9.14994 18.5599L16.4769 18.8103C17.9329 18.864 19.1639 17.7369 19.2527 16.2699C19.3474 14.7671 18.2051 13.473 16.7137 13.3895L8.12606 12.9184C5.88298 12.7932 4.04827 14.7015 4.24949 16.9557Z" fill="url(#paint0_linear)"/>
<path d="M7.27344 11.127H12.2686L12.4816 7.39986C12.5586 6.02229 11.5051 4.84153 10.138 4.77593C8.79447 4.71033 7.6463 5.73605 7.5516 7.08379L7.27344 11.127Z" fill="url(#paint1_linear)"/>
<path d="M14.043 11.1282L18.032 11.5874L18.9375 12.5594L19.7128 5.0574C19.8489 3.71562 18.8842 2.511 17.5585 2.36788C16.2446 2.22476 15.055 3.16698 14.8893 4.49087L14.043 11.1282Z" fill="url(#paint2_linear)"/>
<path d="M21.5611 6.08794L20.5608 14.3354C20.401 15.6593 21.3302 16.8699 22.6441 17.0428C23.9639 17.2217 25.1772 16.2855 25.3607 14.9556L26.4734 6.72007C26.6568 5.37232 25.7336 4.13192 24.4019 3.91723C23.017 3.70851 21.7327 4.68652 21.5611 6.08794Z" fill="url(#paint3_linear)"/>
<path d="M28.3017 10.2925L27.4553 16.2142C27.26 17.5679 28.2011 18.8262 29.5505 19.0111C30.8999 19.196 32.1368 18.2358 32.3084 16.8762L33.0542 10.9366C33.2199 9.61267 32.2907 8.40208 30.9768 8.24107C29.6748 8.08006 28.4852 8.99247 28.3017 10.2925Z" fill="url(#paint4_linear)"/>
<defs>
<linearGradient id="paint0_linear" x1="18.5786" y1="12.9126" x2="18.5786" y2="34.0333" gradientUnits="userSpaceOnUse">
<stop stop-color="#A38671"/>
<stop offset="1" stop-color="#8E725E"/>
</linearGradient>
<linearGradient id="paint1_linear" x1="9.88695" y1="4.77295" x2="9.88695" y2="11.1812" gradientUnits="userSpaceOnUse">
<stop stop-color="#A38671"/>
<stop offset="1" stop-color="#8E725E"/>
</linearGradient>
<linearGradient id="paint2_linear" x1="16.8924" y1="2.35352" x2="16.8924" y2="12.6465" gradientUnits="userSpaceOnUse">
<stop stop-color="#A38671"/>
<stop offset="1" stop-color="#8E725E"/>
</linearGradient>
<linearGradient id="paint3_linear" x1="23.5283" y1="3.88916" x2="23.5283" y2="17.1771" gradientUnits="userSpaceOnUse">
<stop stop-color="#A38671"/>
<stop offset="1" stop-color="#8E725E"/>
</linearGradient>
<linearGradient id="paint4_linear" x1="30.2595" y1="8.22266" x2="30.2595" y2="19.1261" gradientUnits="userSpaceOnUse">
<stop stop-color="#A38671"/>
<stop offset="1" stop-color="#8E725E"/>
</linearGradient>
</defs>
</svg>
