<svg width="37" height="37" viewBox="0 0 37 37" fill="none" xmlns="http://www.w3.org/2000/svg">
<path d="M12.7355 2.25233L6.98047 4.51428L12.3072 18.0669L18.0622 15.805L12.7355 2.25233Z" fill="url(#paint0_linear)"/>
<path d="M19.241 15.8026L24.9961 18.0646L30.3228 4.51192L24.5677 2.24997L19.241 15.8026Z" fill="url(#paint1_linear)"/>
<path d="M18.5485 35.25C24.6267 35.25 29.554 30.3227 29.554 24.2445C29.554 18.1664 24.6267 13.239 18.5485 13.239C12.4703 13.239 7.54297 18.1664 7.54297 24.2445C7.54297 30.3227 12.4703 35.25 18.5485 35.25Z" fill="url(#paint2_linear)" stroke="white" stroke-width="3"/>
<path d="M17.7205 20.6161C18.1172 20.0309 18.9793 20.0309 19.376 20.6161L20.2262 21.8702C20.3575 22.0639 20.5525 22.2054 20.7774 22.2701L22.2308 22.6884C22.9109 22.8841 23.1781 23.7051 22.7434 24.2636L21.8126 25.4595C21.6688 25.6442 21.5944 25.8735 21.6023 26.1075L21.6535 27.6242C21.6774 28.3313 20.9795 28.8389 20.3141 28.5984L18.8883 28.0829C18.6686 28.0035 18.428 28.0035 18.2083 28.0829L16.7795 28.5995C16.1149 28.8397 15.4175 28.3336 15.44 27.6272L15.4884 26.1055C15.4958 25.8727 15.4217 25.6447 15.279 25.4607L14.3498 24.263C13.9164 23.7044 14.1839 22.8846 14.8634 22.6891L16.3192 22.2701C16.544 22.2054 16.7391 22.0639 16.8704 21.8702L17.7205 20.6161Z" fill="white"/>
<defs>
<linearGradient id="paint0_linear" x1="9.858" y1="3.3833" x2="15.1847" y2="16.936" gradientUnits="userSpaceOnUse">
<stop stop-color="#E67E22"/>
<stop offset="1" stop-color="#D35400"/>
</linearGradient>
<linearGradient id="paint1_linear" x1="22.1186" y1="16.9336" x2="27.4453" y2="3.38094" gradientUnits="userSpaceOnUse">
<stop stop-color="#E67E22"/>
<stop offset="1" stop-color="#D35400"/>
</linearGradient>
<linearGradient id="paint2_linear" x1="18.5485" y1="14.739" x2="18.5485" y2="33.75" gradientUnits="userSpaceOnUse">
<stop stop-color="#E67E22"/>
<stop offset="1" stop-color="#D35400"/>
</linearGradient>
</defs>
</svg>
