<svg width="56" height="56" viewBox="0 0 56 56" fill="none" xmlns="http://www.w3.org/2000/svg"><path fill-rule="evenodd" clip-rule="evenodd" d="M30.4701 22.1046C31.8883 21.2512 32.8387 19.6852 32.8387 17.8947C32.8387 15.1914 30.6724 13 28 13C25.3276 13 23.1613 15.1914 23.1613 17.8947C23.1613 19.8183 24.2582 21.4827 25.8537 22.2828C24.3025 25.8651 21.7152 28.2655 18.3711 28.2655C15.5669 28.2655 12.9048 26.6145 11.1922 23.8707C12.1077 22.9801 12.6774 21.7284 12.6774 20.3421C12.6774 17.6388 10.5111 15.4474 7.83871 15.4474C5.16635 15.4474 3 17.6388 3 20.3421C3 22.9481 5.01318 25.0784 7.55214 25.2284L13.0798 42.5516C13.3443 43.4075 14.0322 44 14.773 44H42.0236C42.7644 44 43.4523 43.4075 43.7168 42.5516L49.284 25.1044C51.415 24.5922 53 22.6544 53 20.3421C53 17.6388 50.8336 15.4474 48.1613 15.4474C45.4889 15.4474 43.3226 17.6388 43.3226 20.3421C43.3226 21.9766 44.1146 23.424 45.3315 24.3129C43.6231 26.8401 41.0866 28.3313 38.3725 28.3313C34.9196 28.3313 31.9682 25.9134 30.4701 22.1046Z" fill="url(#paint0_linear)"/><defs><linearGradient id="paint0_linear" x1="28" y1="13" x2="28" y2="44" gradientUnits="userSpaceOnUse"><stop stop-color="#F98600"/><stop offset="1" stop-color="#F4BF00"/></linearGradient></defs></svg>